<?xml version="1.0" encoding="UTF-8" standalone="no"?>
<svg width="100px" height="77px" viewBox="0 0 100 77" version="1.1" xmlns="http://www.w3.org/2000/svg" xmlns:xlink="http://www.w3.org/1999/xlink">
    <!-- Generator: Sketch 39.1 (31720) - http://www.bohemiancoding.com/sketch -->
    <title>Group</title>
    <desc>Created with Sketch.</desc>
    <defs></defs>
    <g id="Page-1" stroke="none" stroke-width="1" fill="none" fill-rule="evenodd">
        <g id="logo" transform="translate(0.000000, -1.000000)" fill="#000000">
            <g id="Group">
                <rect id="Rectangle-path" x="47.826087" y="61.9565217" width="4.34782609" height="2.17391304"></rect>
                <path d="M51.6934783,56.1054348 C51.6717391,56.1021739 51.6532609,56.0967391 51.6315217,56.0934783 C51.5782609,56.9608696 51.0869565,57.6576087 50,57.7663043 C48.9130435,57.6565217 48.3880435,56.9608696 48.3347826,56.0923913 C42.4934783,56.8793478 42.8826087,62.0163043 42.8826087,62.0163043 C42.8826087,62.0163043 43.4782609,59.3 50,59.3 C55.5880435,59.3 56.8815217,61.2902174 57.1380435,61.8608696 C57.1815217,61.9565217 57.1978261,62.0163043 57.1978261,62.0163043 C57.1978261,62.0163043 57.2663043,60.7326087 56.6043478,59.35 C55.948913,57.9782609 54.5684783,56.5119565 51.6934783,56.1054348 L51.6934783,56.1054348 Z" id="Shape"></path>
                <path d="M99.4326087,24.998913 C99.4326087,24.7619565 99.3554348,24.5304348 99.2119565,24.3423913 C97.248913,21.7554348 84.2891304,16.3967391 65.3913043,14.3402174 C65.3913043,14.3380435 65.3902174,14.3358696 65.3891304,14.3347826 C64.476087,11.2826087 63.0956522,8.35217391 61.1054348,6.01413043 C58.2847826,2.69891304 54.5619565,1.01847826 50.0652174,1.01847826 C45.5728261,1.01847826 41.8565217,2.69565217 39.0315217,6.00434783 C37.0771739,8.29347826 35.726087,11.1554348 34.8076087,14.1445652 C34.5793478,14.8869565 34.3782609,15.6358696 34.201087,16.3869565 C33.7423913,18.3228261 33.4380435,20.2652174 33.248913,22.098913 C22.0934783,23.6130435 12.8163043,26.4793478 7.53913043,29.625 C5.22826087,28.3608696 3.70108696,27.1695652 3.08913043,26.2108696 L2.9173913,25.4152174 C4.84565217,23.9271739 13.325,18.3641304 34.2,16.3880435 C34.3782609,15.6369565 34.5771739,14.8869565 34.8054348,14.1456522 C9.4,16.3891304 1.34673913,23.8478261 0.961956522,24.2195652 C0.691304348,24.4804348 0.575,24.8630435 0.654347826,25.2304348 L0.667391304,25.2902174 C0.654347826,25.3565217 0.630434783,25.4184783 0.630434783,25.4880435 C0.630434783,25.8206522 0.693478261,26.1630435 0.816304348,26.5076087 L2.82717391,36.3423913 C2.87717391,36.5913043 3.01413043,36.8152174 3.21195652,36.973913 C3.65869565,37.3315217 11.45,43.4130435 27.1565217,46.8782609 C27.248913,54.1934783 30.7934783,60.676087 36.2293478,64.8054348 C38.823913,71.423913 43.0793478,77.248913 50.0315217,77.248913 C56.9836957,77.248913 61.2391304,71.423913 63.8336957,64.8054348 C69.1815217,60.7434783 72.6880435,54.401087 72.8891304,47.2293478 C87.8717391,44.325 95.3086957,39.0630435 97.0391304,36.7826087 C97.1826087,36.5934783 97.2597826,36.3630435 97.2597826,36.126087 C97.2597826,35.8184783 97.2956522,35.4076087 97.3521739,34.9423913 C97.7836957,33.4728261 99.0717391,28.9206522 99.3673913,26.0478261 C99.4054348,25.8597826 99.4326087,25.6728261 99.4326087,25.4891304 C99.4326087,25.4597826 99.4195652,25.4336957 99.4173913,25.4043478 C99.4228261,25.2630435 99.4326087,25.1228261 99.4326087,24.998913 L99.4326087,24.998913 Z M40.6793478,7.41304348 C43.0728261,4.60978261 46.2271739,3.18913043 50.0543478,3.18913043 C53.8836957,3.18913043 57.0380435,4.61304348 59.4271739,7.41956522 C63.3097826,11.9826087 64.5456522,19.2445652 64.8380435,24.7206522 C63.6163043,25.3532609 58.9847826,27.3923913 50.023913,27.3923913 C41.1576087,27.3923913 36.4826087,25.3597826 35.2336957,24.7228261 C35.5380435,19.2391304 36.7913043,11.9663043 40.6793478,7.41304348 L40.6793478,7.41304348 Z M64.9163043,27.0815217 C64.9326087,28.9271739 64.8478261,30.4119565 64.7554348,31.2804348 C63.3902174,31.9597826 58.7043478,33.9152174 50.0173913,33.9152174 C41.3315217,33.9152174 36.6554348,31.9597826 35.2967391,31.2826087 C35.2065217,30.4130435 35.1271739,28.9293478 35.1478261,27.0847826 C37.3391304,28.0304348 42.1097826,29.5673913 50.0228261,29.5673913 C57.9445652,29.5673913 62.723913,28.0271739 64.9163043,27.0815217 L64.9163043,27.0815217 Z M33.0695652,24.3054348 C33.0652174,24.3815217 33.0597826,24.4586957 33.0565217,24.5347826 C32.848913,28.1902174 33.0521739,31.1076087 33.2152174,32.1413043 L33.2913043,32.623913 L33.7032609,32.8869565 C33.9076087,33.0173913 38.8434783,36.0891304 50.0173913,36.0891304 C61.1913043,36.0891304 66.1402174,33.0184783 66.3445652,32.8869565 L66.7554348,32.625 L67.0293478,32.1445652 C67.2,31.0934783 67.3913043,28.0880435 67.3913043,24.3380435 L67.3913043,24.3315217 C69.348913,24.6086957 71.2271739,24.9206522 73.0021739,25.2706522 C73.1032609,25.2902174 73.2086957,25.3097826 73.3086957,25.3293478 C73.5184783,25.3706522 73.7217391,25.4152174 73.9282609,25.4576087 C81.0108696,26.926087 86.5282609,28.9 90.1576087,30.8119565 C81.8380435,34.6391304 67.05,38.5206522 50.0293478,38.5206522 C32.6456522,38.5206522 18.2793478,34.6478261 10.1119565,30.9043478 C10.0478261,30.875 9.98586957,30.8456522 9.92282609,30.8163043 C14.6847826,28.3804348 22.6913043,25.7673913 33.0695652,24.3054348 L33.0695652,24.3054348 Z M29.3521739,47.3315217 C30.3478261,47.526087 31.376087,47.7076087 32.4304348,47.8782609 C32.6847826,50.476087 33.323913,55.45 34.8054348,60.5836957 C31.5673913,57.0652174 29.5358696,52.4358696 29.3521739,47.3315217 L29.3521739,47.3315217 Z M50.0304348,75.0706522 C45.226087,75.0706522 41.8815217,71.5271739 39.5586957,66.9141304 C41.0391304,67.6793478 42.6141304,68.2782609 44.2597826,68.7076087 L50.0304348,73.525 L55.801087,68.7076087 C57.4467391,68.2782609 59.0217391,67.6793478 60.5021739,66.9141304 C58.1793478,71.5271739 54.8347826,75.0706522 50.0304348,75.0706522 L50.0304348,75.0706522 Z M61.998913,63.4619565 C58.6141304,65.8695652 54.4902174,67.3 50.0304348,67.3 C45.5706522,67.3 41.4456522,65.8695652 38.0608696,63.4619565 C35.9445652,57.7858696 35.025,51.4978261 34.6619565,48.2141304 C36.7467391,48.5032609 38.9380435,48.7402174 41.2369565,48.9141304 C41.2315217,48.9728261 41.2195652,49.0282609 41.2195652,49.0880435 C41.2195652,50.0858696 42.0282609,50.8945652 43.026087,50.8945652 C44.0108696,50.8945652 44.8076087,50.1054348 44.8293478,49.126087 C46.5119565,49.2 48.2402174,49.2423913 50.0293478,49.2423913 C51.8217391,49.2423913 53.5521739,49.2076087 55.2315217,49.1478261 C55.2641304,50.1173913 56.0554348,50.8945652 57.0326087,50.8945652 C58.0304348,50.8945652 58.8391304,50.0858696 58.8391304,49.0880435 C58.8391304,49.0478261 58.8304348,49.0097826 58.8271739,48.9706522 C61.1217391,48.826087 63.3076087,48.6315217 65.3771739,48.3880435 C65.0032609,51.7173913 64.0782609,57.8847826 61.998913,63.4619565 L61.998913,63.4619565 Z M65.2543478,60.5847826 C66.6956522,55.5913043 67.3391304,50.7543478 67.6065217,48.1032609 C68.6684783,47.9565217 69.6934783,47.7945652 70.6923913,47.625 C70.4434783,52.6130435 68.4315217,57.1326087 65.2543478,60.5847826 L65.2543478,60.5847826 Z M95.0945652,35.7173913 C92.5978261,38.4858696 79.3543478,47.0706522 50.0304348,47.0706522 C22.0869565,47.0706522 7.14130435,37.1347826 4.87173913,35.498913 L3.69891304,29.7608696 C10.726087,34.9565217 29.1163043,40.6956522 50.0304348,40.6956522 C70.9369565,40.6956522 88.9380435,35.0152174 96.0804348,29.9608696 C95.598913,32.0423913 95.1673913,34.2467391 95.0945652,35.7173913 L95.0945652,35.7173913 Z M97.0565217,26.0728261 C96.475,27.0967391 94.9065217,28.3315217 92.5413043,29.6206522 C87.3358696,26.4782609 78.2054348,23.6152174 67.023913,22.101087 C67.0228261,22.0913043 67.0206522,22.0826087 67.0195652,22.0728261 C66.8402174,20.3065217 66.4565217,18.4391304 66.0271739,16.575 C83.6108696,18.5706522 95.0630435,23.3793478 97.2402174,25.4 C97.198913,25.551087 97.1369565,25.776087 97.0565217,26.0728261 L97.0565217,26.0728261 Z" id="Shape"></path>
            </g>
        </g>
    </g>
</svg>